<svg fill="none" xmlns="http://www.w3.org/2000/svg" viewBox="0 0 552 101">
  <path d="M121.5 71.7c-5.5 0-9.7-1.4-12.5-4.3a15.9 15.9 0 0 1-4.2-11.5V41a330.3 330.3 0 0 0-.4-12.8h8.8v26.4c0 3.1.5 5.7 1.7 7.6 1.2 1.9 3.4 2.8 6.6 2.8 3.2 0 5.4-1 6.5-2.8 1.2-2 1.7-4.5 1.7-7.6V28.2h8.8a327 327 0 0 0-.4 12.8v15c0 4.7-1.4 8.5-4.2 11.4-2.8 2.9-6.9 4.3-12.4 4.3Zm33 0c-1.8 0-3.5-.2-5-.7a7.1 7.1 0 0 1-3.7-2.7 9 9 0 0 1-1.3-5.2V32.3h8.2v25.2c0 2.2.1 3.8.4 5 .2 1 .6 1.7 1.2 2 .5.3 1.2.5 2.1.5.8 0 1.6-.2 2.5-.6l3.2-1.6v6.6a15.3 15.3 0 0 1-7.5 2.3ZM139 47.4v-5.8h22.7v5.8H139Zm36.7 38.4c-2.4 0-4.8-.4-7.3-1-2.4-.6-4.4-1.6-6-3a6.1 6.1 0 0 1-2.4-5c0-3.2 2.6-5.9 8-8a5213.9 5213.9 0 0 0 5.8 1c.7.2 1.1.4 1.2.6-2 .7-3.5 1.4-4.5 2.1a6 6 0 0 0-2 2l-.3 1.8c0 .8.6 1.6 2 2.4 1.2.7 3.2 1.1 6 1.1 2 0 4-.4 5.5-1.3 1.5-.8 2.3-1.7 2.3-2.5 0-1-.7-2-2-2.7-1.3-.7-3.8-1.2-7.5-1.6-3.9-.5-6.6-1.4-8-2.7-1.4-1.3-2-2.8-2-4.3 0-.9.3-1.8 1-2.8.8-1 2-1.9 3.3-2.5l7 1.4c-1.8.4-3 .8-3.6 1.3-.7.5-1 1-1 1.4 0 .6.6 1 1.8 1.5 1.3.3 3.8.8 7.5 1.2 4.4.5 7.4 1.6 9.1 3.2a8.3 8.3 0 0 1 2.6 6.3c0 1.5-.5 3-1.5 4.2-1 1.3-2.3 2.3-4 3.2a24 24 0 0 1-11 2.7ZM175 62c-2.4 0-4.7-.5-6.6-1.4-2-.9-3.5-2.1-4.7-3.8a9.3 9.3 0 0 1-1.7-5.5c0-2 .5-3.8 1.7-5.5 1.2-1.6 2.7-3 4.7-3.9 2-1 4.2-1.5 6.6-1.5 2.5 0 4.7.5 6.7 1.4 2 1 3.5 2.2 4.6 3.8a9.8 9.8 0 0 1 0 11c-1.1 1.7-2.7 3-4.6 4-2 1-4.2 1.4-6.7 1.4Zm0-5.7c1.6 0 3-.5 4-1.5a5 5 0 0 0 1.6-3.8c0-1.3-.6-2.5-1.6-3.4-1-1-2.4-1.5-4-1.5s-3 .5-4 1.5-1.6 2-1.6 3.4a5 5 0 0 0 1.6 3.8c1 1 2.4 1.5 4 1.5Zm8.2-8-1.9-5a23.2 23.2 0 0 1 9.4-3l-.3 6.5a20.3 20.3 0 0 0-7.2 1.6ZM201 71.8c-2 0-3.7-.4-5.3-1.2-1.5-.9-2.7-2-3.5-3.4a8.3 8.3 0 0 1-1.3-4.4 9.5 9.5 0 0 1 4.6-8.4c1.7-1.1 4-1.8 7.1-2a65.4 65.4 0 0 1 8-.6v-1.5c0-1-.7-1.9-2-2.4a14.2 14.2 0 0 0-9.8.2c-1.5.7-3.1 1.6-4.9 2.8a165.4 165.4 0 0 0 .4-7.6c1.6-.7 3.4-1.3 5.2-1.8 1.8-.6 4-.9 6.5-.9 3.8 0 6.9.8 9.2 2.4 2.3 1.6 3.5 3.5 3.5 5.8v11.5a28.3 28.3 0 0 0 2 10.8h-7.9a79.3 79.3 0 0 1-1.4-4 15.7 15.7 0 0 1-5.2 3.6 14 14 0 0 1-5.2 1.1ZM203 65c1.2 0 2.4-.2 3.6-.8 1.1-.5 2.4-1.7 3.8-3.6v-3.5a69.7 69.7 0 0 0-6.1.5c-2 .2-3.5.7-4.2 1.5-.7.7-1.1 1.6-1.1 2.5 0 1 .4 1.8 1 2.4.8.7 1.8 1 3 1Zm18.8 6V53a44.7 44.7 0 0 0-1.4-11.9h8l.7 2.8.5 3c1.4-2.1 3-3.7 4.7-4.7 1.7-1.1 3.2-1.7 4.5-1.7 2.7 0 4.7 1.1 5.8 3.3a16 16 0 0 1 1.8 7.7l-6.5 1a6.6 6.6 0 0 0-1-3.1c-.5-.8-1.4-1.3-2.7-1.3-.6 0-1.4.4-2.2 1.1a13.5 13.5 0 0 0-4 6.3V71h-8.2Zm30.9-29.3-4.3-2c1.6-1.7 2.7-3.3 3.5-5a10 10 0 0 0 1.2-4.2h-4.7v-3.9c0-1 .5-2.1 1.5-3.1s2.4-1.6 4.1-1.6c1.7 0 3 .6 4 1.8 1 1.1 1.4 2.6 1.4 4.4 0 2.6-.7 5.1-2 7.6a21 21 0 0 1-4.7 6Zm20.9 30c-2.6 0-5-.3-7.2-1s-4-1.4-5.2-2.3l1.6-7.2c1.4 1.2 3.2 2.2 5.3 2.9 2 .7 4 1 5.7 1 1.3 0 2.5-.2 3.3-.7 1-.6 1.3-1.2 1.3-1.9 0-.8-.4-1.6-1.3-2.2-.9-.7-2.7-1.4-5.5-2a23 23 0 0 1-6.4-2.1 7.3 7.3 0 0 1-3-2.9c-.5-1-.7-2.2-.7-3.4 0-.7.2-1.6.5-2.6.4-1 1.1-2.1 2-3.1 1-1 2.3-2 4-2.6a21.9 21.9 0 0 1 12.5-.3c1.7.5 3.1 1 4.2 1.6l-1.1 6.9c-1-.6-2.5-1.2-4.1-1.8-1.7-.7-3.6-1-5.6-1-1.7 0-2.9.3-3.5.9-.7.5-1 1.1-1 1.7a2 2 0 0 0 1 1.8c.6.3 2.3.8 4.8 1.3 2 .4 4 1 5.6 1.7 1.7.7 3 1.6 4 2.8 1 1.2 1.6 2.7 1.6 4.6 0 1.9-.6 3.5-1.7 5a11.7 11.7 0 0 1-4.6 3.6c-2 .9-4.1 1.3-6.5 1.3Zm43.6 0c-6 0-10.8-2-14.3-5.8a22.7 22.7 0 0 1-5.2-15.7c0-5 1-9.2 2.8-12.6 1.9-3.3 4.4-5.8 7.5-7.5 3-1.7 6.4-2.6 10-2.6 2.8 0 5.2.3 7.3 1a20 20 0 0 1 6.4 3.1l-2 7a19.4 19.4 0 0 0-5.6-3c-1.8-.7-3.6-1-5.6-1-3.5 0-6.5 1.2-8.9 3.7-2.3 2.5-3.5 6.2-3.5 11.2 0 4.7 1 8.4 3.2 11 2.2 2.7 5.1 4 9 4 2.1 0 4.4-.4 6.6-1.4 2.2-1 4.2-2.3 5.8-4l1.4 7.8a26.6 26.6 0 0 1-15 4.8Zm16.8-.7V37.9a383.3 383.3 0 0 0-.4-13.8h8.6v22c1.4-1.8 3.2-3.2 5.2-4.2 2-.9 4.1-1.4 6.2-1.4 6 0 9 4 9 12.2V71h-8.3V54.9c0-2.9-.3-4.8-1-5.7-.8-1-2-1.5-3.5-1.5-1.7 0-3.2.7-4.7 2a10.6 10.6 0 0 0-2.9 4.3v17h-8.2Zm30.8 0V53a44.8 44.8 0 0 0-1.4-11.9h8l.7 2.8.5 3c1.4-2.1 3-3.7 4.7-4.7 1.7-1.1 3.2-1.7 4.5-1.7 2.8 0 4.7 1.1 5.9 3.3a16 16 0 0 1 1.7 7.7l-6.5 1a6.6 6.6 0 0 0-1-3.1c-.5-.8-1.4-1.3-2.6-1.3-.7 0-1.4.4-2.3 1.1-.8.7-1.6 1.7-2.3 2.8-.7 1.1-1.3 2.3-1.7 3.5V71H365Zm36 .7c-4 0-7.4-1.3-10-4-2.7-2.7-4-6.5-4-11.5 0-3.4.6-6.2 2-8.6 1.3-2.3 3.1-4 5.3-5.2a15 15 0 0 1 7.3-1.9c4.2 0 7.5 1.4 10.1 4 2.7 2.7 4 6.6 4 11.7 0 3.3-.7 6.2-2 8.5-1.4 2.3-3.1 4-5.4 5.2a15.1 15.1 0 0 1-7.3 1.8Zm.4-6.6c1.8 0 3.3-.8 4.4-2.3 1.1-1.7 1.7-3.9 1.7-6.6 0-2.9-.5-5-1.6-6.6a5.1 5.1 0 0 0-4.5-2.5c-2 0-3.5.8-4.6 2.5-1 1.5-1.6 3.7-1.6 6.6 0 2.7.5 5 1.5 6.6 1.1 1.5 2.6 2.3 4.7 2.3Zm15.6 5.9V53a44.8 44.8 0 0 0-1.5-11.9h8a67.2 67.2 0 0 1 1.2 5.4c1.9-2 3.7-3.6 5.5-4.6 1.8-.9 3.8-1.4 5.8-1.4 3 0 5.3 1 7 3.1 1.7 2 2.6 5 2.6 9.1V71h-8.2V54.9c0-2.7-.4-4.6-1.1-5.6-.8-1-2-1.6-3.5-1.6-1.7 0-3.2.7-4.7 2a10.5 10.5 0 0 0-3 4.3v17H417Zm31.9 0V55.5a398.2 398.2 0 0 0-.5-14.4h8.7v16a323.8 323.8 0 0 0 .2 9.8l.4 4.1h-8.8Zm4.1-35.4c-1.5 0-2.7-.5-3.7-1.4a5 5 0 0 1-1.5-3.7 5 5 0 0 1 1.5-3.8c1-1 2.2-1.4 3.7-1.4a5 5 0 0 1 3.7 1.4 5 5 0 0 1 1.4 3.8 5 5 0 0 1-1.4 3.7 5 5 0 0 1-3.7 1.4Zm20.7 36.1c-2.6 0-5-.6-7.2-1.8a13.2 13.2 0 0 1-5.2-5c-1.3-2.3-1.9-5-1.9-8.2 0-3 .6-5.8 1.9-8.2a14.5 14.5 0 0 1 13.4-8 19.4 19.4 0 0 1 9 2.1l-1.2 7.1c-1-.9-2.2-1.6-3.4-2-1.2-.5-2.6-.7-4.3-.7-2.1 0-3.9.8-5.2 2.6-1.3 1.6-2 4-2 6.8 0 2.5.6 4.6 1.8 6.3 1.3 1.6 3 2.4 5.4 2.4 1.8 0 3.3-.2 4.6-.8A18 18 0 0 0 483 62l.9 7c-1.4 1-2.9 1.6-4.6 2.1-1.7.5-3.6.7-5.8.7Zm12.7-.7V38a174.8 174.8 0 0 0-.6-13.9h8.8v33a323.8 323.8 0 0 0 .2 9.8l.4 4.1h-8.8Zm25 .7c-2.5 0-4.9-.6-7.1-1.7-2.2-1.2-4-2.9-5.4-5.1a16 16 0 0 1-2-8.4c0-4.8 1.3-8.7 3.9-11.6 2.6-3 6.2-4.4 10.7-4.4 3.3 0 5.8.8 7.6 2.3 1.7 1.4 3 3.3 3.6 5.5.7 2.3 1 4.7 1 7.1v1.2l.1 1.2h-22.5v-5.2h15c0-2-.4-3.6-1.3-4.5-.9-1-2.2-1.4-4-1.4-2 0-3.6.7-4.6 2.2-1 1.4-1.6 3.9-1.6 7.3 0 3.1.7 5.4 2 6.8 1.2 1.4 3 2.1 5.4 2.1a20.2 20.2 0 0 0 11.1-3l.7 6.7a25 25 0 0 1-12.5 2.9Zm25.1 0c-2.6 0-5-.3-7.2-1a19 19 0 0 1-5.2-2.3l1.6-7.2c1.4 1.2 3.2 2.2 5.3 2.9 2 .7 4 1 5.7 1 1.3 0 2.5-.2 3.3-.7.9-.6 1.3-1.2 1.3-1.9 0-.8-.4-1.6-1.3-2.2-1-.7-2.7-1.4-5.5-2a23 23 0 0 1-6.4-2.1 7.3 7.3 0 0 1-3-2.9c-.5-1-.7-2.2-.7-3.4 0-.7.1-1.6.5-2.6s1-2.1 2-3.1 2.3-2 4-2.6a21.8 21.8 0 0 1 12.5-.3c1.7.5 3.1 1 4.2 1.6l-1.1 6.9c-1-.6-2.5-1.2-4.1-1.8-1.7-.7-3.6-1-5.6-1-1.7 0-2.9.3-3.5.9-.7.5-1 1.1-1 1.7a2 2 0 0 0 1 1.8c.6.3 2.3.8 4.8 1.3 2 .4 4 1 5.6 1.7 1.7.7 3 1.6 4 2.8 1 1.2 1.6 2.7 1.6 4.6 0 1.9-.6 3.5-1.7 5a11.7 11.7 0 0 1-4.6 3.6c-2 .9-4.1 1.3-6.5 1.3Z" fill="#F3F5F7"/>
  <rect x="-1" y="-1.3" width="73.1" height="85.1" rx="14.5" transform="rotate(6 -44.7 124.9) skewX(.1)" fill="url(#a)" stroke="#EEF2FF" stroke-width="2.3"/>
  <rect x="-1.3" y="-1.1" width="59.1" height="67.2" rx="12.1" transform="rotate(-4 307 -195.7) skewX(-.1)" fill="url(#b)" stroke="#E6E9F0" stroke-width="2.3"/>
  <rect x="-1.4" y="-.9" width="42" height="46.6" rx="9" transform="matrix(.9703 -.24192 .23843 .97116 21.6 36.6)" fill="url(#c)" stroke="#EEF2FF" stroke-width="2.3"/>
  <defs>
    <radialGradient id="a" cx="0" cy="0" r="1" gradientUnits="userSpaceOnUse" gradientTransform="matrix(0 41.3824 -35.354 0 35.4 41.4)">
      <stop stop-color="#fff"/>
      <stop offset="1" stop-color="#F2F4F6"/>
    </radialGradient>
    <radialGradient id="b" cx="0" cy="0" r="1" gradientUnits="userSpaceOnUse" gradientTransform="matrix(0 32.4481 -28.3601 0 28.4 32.4)">
      <stop stop-color="#4B5563"/>
      <stop offset="1" stop-color="#374151"/>
    </radialGradient>
    <radialGradient id="c" cx="0" cy="0" r="1" gradientUnits="userSpaceOnUse" gradientTransform="matrix(0 22.1123 -19.8213 0 19.8 22.1)">
      <stop stop-color="#fff"/>
      <stop offset="1" stop-color="#F2F4F6"/>
    </radialGradient>
  </defs>
</svg>
