<?xml version="1.0" standalone="no"?>
<!DOCTYPE svg PUBLIC "-//W3C//DTD SVG 20010904//EN"
 "http://www.w3.org/TR/2001/REC-SVG-20010904/DTD/svg10.dtd">
<svg version="1.0" xmlns="http://www.w3.org/2000/svg"
 width="700.000000pt" height="700.000000pt" viewBox="0 0 700.000000 700.000000"
 preserveAspectRatio="xMidYMid meet">
<metadata>
Created by potrace 1.14, written by Peter Selinger 2001-2017
</metadata>
<g transform="translate(0.000000,700.000000) scale(0.100000,-0.100000)"
fill="#000000" stroke="none">
<path d="M4730 5573 c-41 -3 -596 -40 -1880 -123 -256 -17 -537 -35 -625 -41
-259 -17 -392 -59 -538 -169 -129 -98 -222 -236 -272 -405 -23 -75 -27 -110
-27 -205 0 -148 217 -2712 238 -2807 72 -334 345 -586 687 -634 69 -9 131 -9
333 5 137 9 762 50 1389 91 953 62 1152 78 1212 95 332 92 558 365 579 700 7
111 -217 2782 -242 2880 -66 262 -272 485 -528 571 -65 22 -264 56 -278 47 -2
-1 -23 -3 -48 -5z m-79 -1299 c78 -23 125 -50 180 -101 72 -67 104 -125 143
-258 98 -334 339 -1197 346 -1242 26 -158 -67 -332 -214 -399 -33 -15 -310
-80 -746 -176 l-693 -151 -73 10 c-144 21 -278 112 -338 231 -14 28 -110 347
-212 709 -168 593 -187 665 -186 733 0 103 28 174 99 250 94 102 -17 72 1473
398 70 15 161 14 221 -4z"/>
</g>
</svg>
